<mxfile host="app.diagrams.net" modified="2023-05-09T02:40:01.089Z" agent="Mozilla/5.0 (Macintosh; Intel Mac OS X 10_15_7) AppleWebKit/537.36 (KHTML, like Gecko) Chrome/112.0.0.0 Safari/537.36" etag="O35YT3pv7XUgc19KqcBZ" version="21.2.7" type="github">
  <diagram name="第 1 页" id="cQVM90BzrQ99IuH6onG_">
    <mxGraphModel dx="2158" dy="1240" grid="1" gridSize="10" guides="1" tooltips="1" connect="1" arrows="1" fold="1" page="0" pageScale="1" pageWidth="827" pageHeight="1169" math="0" shadow="0">
      <root>
        <mxCell id="0" />
        <mxCell id="1" parent="0" />
        <mxCell id="22_knRrEDlqWyi6Pxok1-1" value="服务注册、取消" style="rounded=1;whiteSpace=wrap;html=1;fillColor=#e1d5e7;strokeColor=#9673a6;" vertex="1" parent="1">
          <mxGeometry x="-180" y="400" width="120" height="60" as="geometry" />
        </mxCell>
        <mxCell id="22_knRrEDlqWyi6Pxok1-2" value="" style="rounded=1;whiteSpace=wrap;html=1;arcSize=9;dashed=1;" vertex="1" parent="1">
          <mxGeometry x="290" y="70" width="480" height="440" as="geometry" />
        </mxCell>
        <mxCell id="22_knRrEDlqWyi6Pxok1-3" value="readOnlyCacheMap（只读）--ConcurrentHashMap" style="rounded=1;whiteSpace=wrap;html=1;fillColor=#dae8fc;strokeColor=#6c8ebf;" vertex="1" parent="1">
          <mxGeometry x="325" y="130" width="410" height="60" as="geometry" />
        </mxCell>
        <mxCell id="22_knRrEDlqWyi6Pxok1-4" value="readWriteCacheMap（读写）--guava" style="rounded=1;whiteSpace=wrap;html=1;fillColor=#d5e8d4;strokeColor=#82b366;" vertex="1" parent="1">
          <mxGeometry x="325" y="250" width="410" height="60" as="geometry" />
        </mxCell>
        <mxCell id="22_knRrEDlqWyi6Pxok1-47" style="edgeStyle=orthogonalEdgeStyle;rounded=0;orthogonalLoop=1;jettySize=auto;html=1;" edge="1" parent="1" source="22_knRrEDlqWyi6Pxok1-5" target="22_knRrEDlqWyi6Pxok1-4">
          <mxGeometry relative="1" as="geometry" />
        </mxCell>
        <mxCell id="22_knRrEDlqWyi6Pxok1-48" value="实时更新（删除和新增）" style="edgeLabel;html=1;align=center;verticalAlign=middle;resizable=0;points=[];" vertex="1" connectable="0" parent="22_knRrEDlqWyi6Pxok1-47">
          <mxGeometry x="-0.2" y="-1" relative="1" as="geometry">
            <mxPoint as="offset" />
          </mxGeometry>
        </mxCell>
        <mxCell id="22_knRrEDlqWyi6Pxok1-5" value="register（注册表）--双层ConcurrentHashMap" style="rounded=1;whiteSpace=wrap;html=1;fillColor=#f8cecc;strokeColor=#b85450;" vertex="1" parent="1">
          <mxGeometry x="325" y="390" width="410" height="60" as="geometry" />
        </mxCell>
        <mxCell id="22_knRrEDlqWyi6Pxok1-6" value="&lt;b&gt;EurekaServer 三层缓存架构&lt;/b&gt;" style="text;html=1;strokeColor=none;fillColor=none;align=center;verticalAlign=middle;whiteSpace=wrap;rounded=0;" vertex="1" parent="1">
          <mxGeometry x="310" y="80" width="235" height="30" as="geometry" />
        </mxCell>
        <mxCell id="22_knRrEDlqWyi6Pxok1-8" style="edgeStyle=orthogonalEdgeStyle;rounded=0;orthogonalLoop=1;jettySize=auto;html=1;exitX=0.5;exitY=1;exitDx=0;exitDy=0;" edge="1" parent="1" source="22_knRrEDlqWyi6Pxok1-2" target="22_knRrEDlqWyi6Pxok1-2">
          <mxGeometry relative="1" as="geometry" />
        </mxCell>
        <mxCell id="22_knRrEDlqWyi6Pxok1-10" value="" style="endArrow=classic;html=1;rounded=0;exitX=1;exitY=0.5;exitDx=0;exitDy=0;entryX=0;entryY=0.625;entryDx=0;entryDy=0;entryPerimeter=0;" edge="1" parent="1" source="22_knRrEDlqWyi6Pxok1-1" target="22_knRrEDlqWyi6Pxok1-5">
          <mxGeometry width="50" height="50" relative="1" as="geometry">
            <mxPoint x="250" y="430" as="sourcePoint" />
            <mxPoint x="300" y="380" as="targetPoint" />
          </mxGeometry>
        </mxCell>
        <mxCell id="22_knRrEDlqWyi6Pxok1-11" value="直接操作，实时更新" style="edgeLabel;html=1;align=center;verticalAlign=middle;resizable=0;points=[];" vertex="1" connectable="0" parent="22_knRrEDlqWyi6Pxok1-10">
          <mxGeometry x="-0.2407" y="3" relative="1" as="geometry">
            <mxPoint as="offset" />
          </mxGeometry>
        </mxCell>
        <mxCell id="22_knRrEDlqWyi6Pxok1-13" style="edgeStyle=orthogonalEdgeStyle;rounded=0;orthogonalLoop=1;jettySize=auto;html=1;entryX=1;entryY=0.25;entryDx=0;entryDy=0;" edge="1" parent="1" source="22_knRrEDlqWyi6Pxok1-12" target="22_knRrEDlqWyi6Pxok1-3">
          <mxGeometry relative="1" as="geometry">
            <Array as="points">
              <mxPoint x="950" y="145" />
              <mxPoint x="950" y="145" />
            </Array>
          </mxGeometry>
        </mxCell>
        <mxCell id="22_knRrEDlqWyi6Pxok1-14" value="每30s拉取服务注册信息" style="edgeLabel;html=1;align=center;verticalAlign=middle;resizable=0;points=[];" vertex="1" connectable="0" parent="22_knRrEDlqWyi6Pxok1-13">
          <mxGeometry x="-0.0642" y="-2" relative="1" as="geometry">
            <mxPoint as="offset" />
          </mxGeometry>
        </mxCell>
        <mxCell id="22_knRrEDlqWyi6Pxok1-12" value="Eureka Client" style="rounded=1;whiteSpace=wrap;html=1;fillColor=#ffe6cc;strokeColor=#d79b00;" vertex="1" parent="1">
          <mxGeometry x="1000" y="120" width="150" height="60" as="geometry" />
        </mxCell>
        <mxCell id="22_knRrEDlqWyi6Pxok1-16" value="每30s拉取服务注册信息" style="edgeStyle=orthogonalEdgeStyle;rounded=0;orthogonalLoop=1;jettySize=auto;html=1;" edge="1" parent="1" source="22_knRrEDlqWyi6Pxok1-15" target="22_knRrEDlqWyi6Pxok1-12">
          <mxGeometry relative="1" as="geometry" />
        </mxCell>
        <mxCell id="22_knRrEDlqWyi6Pxok1-15" value="Ribbon&lt;br&gt;" style="rounded=1;whiteSpace=wrap;html=1;fillColor=#fff2cc;strokeColor=#d6b656;" vertex="1" parent="1">
          <mxGeometry x="1000" y="-60" width="150" height="60" as="geometry" />
        </mxCell>
        <mxCell id="22_knRrEDlqWyi6Pxok1-28" value="定时器每30秒从readWriteCache拉取数据到readOnlyCache" style="shape=note;whiteSpace=wrap;html=1;backgroundOutline=1;darkOpacity=0.05;size=23;direction=north;fillColor=#fff2cc;gradientColor=#ffd966;strokeColor=#d6b656;" vertex="1" parent="1">
          <mxGeometry x="780" y="180" width="180" height="80" as="geometry" />
        </mxCell>
        <mxCell id="22_knRrEDlqWyi6Pxok1-34" value="60s定时任务Evita" style="rounded=1;whiteSpace=wrap;html=1;fillColor=#cdeb8b;strokeColor=#36393d;" vertex="1" parent="1">
          <mxGeometry x="910" y="315" width="120" height="60" as="geometry" />
        </mxCell>
        <mxCell id="22_knRrEDlqWyi6Pxok1-36" value="" style="endArrow=classic;html=1;rounded=0;entryX=1;entryY=0.25;entryDx=0;entryDy=0;exitX=0.433;exitY=0.025;exitDx=0;exitDy=0;exitPerimeter=0;" edge="1" parent="1" source="22_knRrEDlqWyi6Pxok1-34" target="22_knRrEDlqWyi6Pxok1-4">
          <mxGeometry width="50" height="50" relative="1" as="geometry">
            <mxPoint x="880" y="280" as="sourcePoint" />
            <mxPoint x="930" y="230" as="targetPoint" />
          </mxGeometry>
        </mxCell>
        <mxCell id="22_knRrEDlqWyi6Pxok1-37" value="" style="endArrow=classic;html=1;rounded=0;entryX=1;entryY=0.75;entryDx=0;entryDy=0;exitX=0.5;exitY=1;exitDx=0;exitDy=0;" edge="1" parent="1" source="22_knRrEDlqWyi6Pxok1-34" target="22_knRrEDlqWyi6Pxok1-5">
          <mxGeometry width="50" height="50" relative="1" as="geometry">
            <mxPoint x="990" y="390" as="sourcePoint" />
            <mxPoint x="1040" y="340" as="targetPoint" />
          </mxGeometry>
        </mxCell>
        <mxCell id="22_knRrEDlqWyi6Pxok1-38" value="清理90s未续约的服务" style="text;html=1;strokeColor=none;fillColor=none;align=center;verticalAlign=middle;whiteSpace=wrap;rounded=0;" vertex="1" parent="1">
          <mxGeometry x="780" y="330" width="123" height="30" as="geometry" />
        </mxCell>
        <mxCell id="22_knRrEDlqWyi6Pxok1-44" style="edgeStyle=orthogonalEdgeStyle;rounded=0;orthogonalLoop=1;jettySize=auto;html=1;entryX=0;entryY=0.25;entryDx=0;entryDy=0;dashed=1;" edge="1" parent="1" target="22_knRrEDlqWyi6Pxok1-3">
          <mxGeometry relative="1" as="geometry">
            <mxPoint x="220" y="150" as="sourcePoint" />
            <Array as="points">
              <mxPoint x="220" y="145" />
            </Array>
          </mxGeometry>
        </mxCell>
        <mxCell id="22_knRrEDlqWyi6Pxok1-39" value="客户端从这里拉取服务信息，可配置成从readWriteCacheMap拉取定时任务30s, 从readWriteCacheMap拉取信息" style="shape=note;whiteSpace=wrap;html=1;backgroundOutline=1;darkOpacity=0.05;size=23;direction=south;fillColor=#dae8fc;gradientColor=#7ea6e0;strokeColor=#6c8ebf;" vertex="1" parent="1">
          <mxGeometry x="-120" y="110" width="340" height="80" as="geometry" />
        </mxCell>
        <mxCell id="22_knRrEDlqWyi6Pxok1-41" value="" style="curved=1;endArrow=classic;html=1;rounded=0;exitX=1;exitY=0.25;exitDx=0;exitDy=0;entryX=1;entryY=0.5;entryDx=0;entryDy=0;" edge="1" parent="1" source="22_knRrEDlqWyi6Pxok1-4" target="22_knRrEDlqWyi6Pxok1-3">
          <mxGeometry width="50" height="50" relative="1" as="geometry">
            <mxPoint x="760" y="230" as="sourcePoint" />
            <mxPoint x="740" y="160" as="targetPoint" />
            <Array as="points">
              <mxPoint x="790" y="230" />
              <mxPoint x="760" y="180" />
            </Array>
          </mxGeometry>
        </mxCell>
        <mxCell id="22_knRrEDlqWyi6Pxok1-46" style="edgeStyle=orthogonalEdgeStyle;rounded=0;orthogonalLoop=1;jettySize=auto;html=1;entryX=0;entryY=0.5;entryDx=0;entryDy=0;dashed=1;" edge="1" parent="1" source="22_knRrEDlqWyi6Pxok1-45" target="22_knRrEDlqWyi6Pxok1-4">
          <mxGeometry relative="1" as="geometry">
            <Array as="points">
              <mxPoint x="260" y="280" />
              <mxPoint x="260" y="280" />
            </Array>
          </mxGeometry>
        </mxCell>
        <mxCell id="22_knRrEDlqWyi6Pxok1-45" value="&lt;div style=&quot;text-align: left;&quot;&gt;&lt;span style=&quot;background-color: initial;&quot;&gt;删除：&lt;/span&gt;&lt;/div&gt;&lt;div style=&quot;text-align: left;&quot;&gt;&lt;span style=&quot;background-color: initial;&quot;&gt;1) 当register信息发生变更时（注册，续约，取消）&lt;/span&gt;&lt;/div&gt;&lt;div style=&quot;text-align: left;&quot;&gt;&lt;span style=&quot;background-color: initial;&quot;&gt;2) Evict定时任务，60s內未续约的服务&lt;/span&gt;&lt;/div&gt;&lt;div style=&quot;text-align: left;&quot;&gt;&lt;span style=&quot;background-color: initial;&quot;&gt;3）自身180s的过期时间&lt;/span&gt;&lt;/div&gt;&lt;div style=&quot;text-align: left;&quot;&gt;&lt;span style=&quot;background-color: initial;&quot;&gt;新增 (guava的load)&lt;/span&gt;&lt;/div&gt;&lt;div style=&quot;text-align: left;&quot;&gt;&lt;span style=&quot;background-color: initial;&quot;&gt;1： 客户端获取注册信息时，未命中缓存，从register获取&lt;/span&gt;&lt;/div&gt;&lt;div style=&quot;text-align: left;&quot;&gt;&lt;span style=&quot;background-color: initial;&quot;&gt;2：readOnlyCacheMap30s定时拉取未获取到时，从register获取&lt;/span&gt;&lt;/div&gt;" style="shape=note;whiteSpace=wrap;html=1;backgroundOutline=1;darkOpacity=0.05;size=23;direction=south;fillColor=#d5e8d4;strokeColor=#82b366;gradientColor=#97d077;" vertex="1" parent="1">
          <mxGeometry x="-120" y="210" width="345" height="150" as="geometry" />
        </mxCell>
        <mxCell id="22_knRrEDlqWyi6Pxok1-50" style="edgeStyle=orthogonalEdgeStyle;rounded=0;orthogonalLoop=1;jettySize=auto;html=1;entryX=0.5;entryY=1;entryDx=0;entryDy=0;dashed=1;" edge="1" parent="1" source="22_knRrEDlqWyi6Pxok1-49" target="22_knRrEDlqWyi6Pxok1-5">
          <mxGeometry relative="1" as="geometry" />
        </mxCell>
        <mxCell id="22_knRrEDlqWyi6Pxok1-49" value="注册表：实际是一个双层的concurrentHashMap&lt;br&gt;&lt;br&gt;第一层：key是spring.application.name,value是第二层ConcurrentHashMap&lt;br&gt;&lt;br&gt;第二层：key是instanceld, value是存储服务具体信息的对象&lt;br&gt;" style="shape=note;whiteSpace=wrap;html=1;backgroundOutline=1;darkOpacity=0.05;direction=south;align=left;fillColor=#f8cecc;gradientColor=#ea6b66;strokeColor=#b85450;" vertex="1" parent="1">
          <mxGeometry x="-155" y="500" width="410" height="110" as="geometry" />
        </mxCell>
      </root>
    </mxGraphModel>
  </diagram>
</mxfile>
